<svg width="31" height="23" viewBox="0 0 31 23" fill="none" xmlns="http://www.w3.org/2000/svg">
<path fill-rule="evenodd" clip-rule="evenodd" d="M24.2129 6.19741C24.2129 8.45355 22.3839 10.2825 20.1278 10.2825C17.8716 10.2825 16.0427 8.45355 16.0427 6.19741C16.0427 3.94127 17.8716 2.1123 20.1278 2.1123C22.3839 2.1123 24.2129 3.94127 24.2129 6.19741ZM22.7802 11.6755C24.812 10.69 26.2129 8.60728 26.2129 6.19741C26.2129 2.8367 23.4885 0.112305 20.1278 0.112305C16.7671 0.112305 14.0427 2.8367 14.0427 6.19741C14.0427 8.60728 15.4435 10.69 17.4753 11.6755C13.4456 12.6965 10.3217 15.99 9.54724 20.1123C9.42549 20.7604 9.36182 21.4289 9.36182 22.1123H11.3618H28.8937H30.8937C30.8937 21.4289 30.8301 20.7604 30.7083 20.1123C29.9339 15.99 26.8099 12.6965 22.7802 11.6755ZM11.591 20.1123C12.4959 16.2347 15.9745 13.3463 20.1278 13.3463C24.281 13.3463 27.7596 16.2347 28.6645 20.1123H11.591Z" fill="white"/>
<rect x="3.74463" y="6.66553" width="1.87234" height="9.3617" rx="0.93617" fill="white"/>
<rect y="12.2827" width="1.87234" height="9.3617" rx="0.93617" transform="rotate(-90 0 12.2827)" fill="white"/>
</svg>
