<svg width="24" height="24" viewBox="0 0 24 24" fill="none" xmlns="http://www.w3.org/2000/svg">
<path d="M16.5 10.5C16.5 12.99 14.49 15 12 15C9.51 15 7.5 12.99 7.5 10.5C7.5 8.01 9.51 6 12 6C14.49 6 16.5 8.01 16.5 10.5Z" fill="black"/>
<path fill-rule="evenodd" clip-rule="evenodd" d="M24 12C24 18.63 18.63 24 12 24C5.37 24 0 18.63 0 12C0 5.37 5.37 0 12 0C18.63 0 24 5.37 24 12ZM6 20.625C6.24 20.226 8.565 16.5 11.985 16.5C15.39 16.5 17.73 20.235 17.97 20.625C19.3648 19.6605 20.5044 18.3716 21.2909 16.8692C22.0774 15.3668 22.4872 13.6958 22.485 12C22.485 6.195 17.79 1.5 11.985 1.5C6.18 1.5 1.485 6.195 1.485 12C1.485 15.57 3.27 18.735 6 20.625Z" fill="black"/>
</svg>
